<svg width="325" height="288" viewBox="0 0 325 288" fill="none" xmlns="http://www.w3.org/2000/svg">
<mask id="mask0_2101_2516" style="mask-type:alpha" maskUnits="userSpaceOnUse" x="0" y="0" width="325" height="288">
<rect width="325" height="288" fill="#C4C4C4"/>
</mask>
<g mask="url(#mask0_2101_2516)">
<circle cx="152" cy="172" r="104" fill="#F22539" stroke="black" stroke-width="2"/>
<mask id="mask1_2101_2516" style="mask-type:alpha" maskUnits="userSpaceOnUse" x="7" y="13" width="329" height="262">
<path fill-rule="evenodd" clip-rule="evenodd" d="M244.476 217.425L289.242 269.119H335.438V13.0752H7V239.374H73.8309C92.7454 261.194 120.69 275 151.864 275C192.511 275 227.667 251.53 244.476 217.425Z" fill="#C4C4C4"/>
</mask>
<g mask="url(#mask1_2101_2516)">
<path d="M217.503 138.701C217.503 138.701 246.494 143.355 268.274 150.356C290.053 157.351 309.054 169.235 309.054 169.235C309.054 169.235 307.307 208.515 293.982 233.525C278.348 223.046 239.736 202.035 221.172 195.497C225.948 205.163 233.415 224.229 237.398 241.742C227.875 241.589 215.123 243.979 215.123 243.979L197.382 183.777L217.503 138.701Z" fill="#F8CC46"/>
<path d="M263.215 186.633C278.131 203.639 289.428 222.403 294.783 231.966C294.52 232.494 294.255 233.015 293.978 233.531C278.344 223.053 239.732 202.041 221.168 195.503C225.945 205.169 233.411 224.235 237.394 241.749C227.871 241.595 215.119 243.985 215.119 243.985L197.379 183.783L215.224 143.806C221.225 148.136 244.912 165.764 263.215 186.633Z" fill="#ECA539"/>
<path d="M217.503 138.701C217.503 138.701 246.494 143.355 268.274 150.356C290.053 157.351 309.054 169.235 309.054 169.235C309.054 169.235 307.307 208.515 293.982 233.525C278.348 223.046 239.736 202.035 221.172 195.497C225.948 205.163 233.415 224.229 237.398 241.742C227.875 241.589 215.123 243.979 215.123 243.979L197.382 183.777L217.503 138.701Z" stroke="#333333" stroke-width="2" stroke-miterlimit="10" stroke-linecap="round" stroke-linejoin="round"/>
<path d="M209.847 194.813C209.847 194.813 209.393 208.809 211.351 220.185C213.308 231.561 216.327 242.906 223.995 255.034C231.662 267.155 236.139 272.837 236.377 280.423C239.889 277.534 244.17 275.227 245.74 276.655C247.31 278.082 246.624 279.895 246.624 279.895C246.624 279.895 248.396 278.607 249.291 279.627C250.186 280.647 250.556 282.747 249.836 285.038C251.083 284.837 251.645 286.518 250.373 290.374C249.101 294.23 244.654 305.14 233.216 316.668C221.777 328.197 211.111 336.326 204.574 332.784C202.303 331.503 202.472 328.398 202.472 328.398C202.472 328.398 201.189 329.002 196.911 328.246C192.632 327.49 172.209 321.373 158.851 320.895C145.492 320.416 127.279 320.501 108.038 326.872C108.191 329.152 107.152 334.57 98.3737 330.854C89.5948 327.138 78.2371 319.718 68.2995 306.766C58.3619 293.813 56.2373 285.308 57.653 284.449C58.356 283.941 59.5594 284.499 59.5594 284.499C59.5594 284.499 57.2903 278.899 58.8238 277.953C60.3574 277.006 62.4406 279.251 62.4406 279.251C62.4406 279.251 62.1317 277.379 63.2721 276.872C64.4126 276.364 66.1907 276.775 69.345 278.957C69.2537 275.282 69.3328 270.594 74.3083 264.115C79.2839 257.636 83.158 255.763 87.3008 254.922C89.0136 248.834 90.0081 245.558 90.5349 241.916C90.5349 241.916 81.2481 237.059 69.6856 222.133C58.123 207.206 50.9433 194.135 48.1147 186.569C45.2924 179.002 43.5699 174.236 42.7466 173.424C41.9226 172.607 40.8798 171.126 41.0236 170.478C41.1674 169.829 43.0629 170.273 43.2067 169.624C43.3505 168.976 41.9334 166.423 42.3803 165.636C42.8271 164.849 45.1379 165.201 45.3184 164.916C45.4989 164.632 44.6749 162.178 45.1381 161.555C45.6007 160.925 48.0735 161.311 48.5469 160.788C49.0202 160.265 47.6991 157.594 48.4201 156.888C49.1412 156.181 54.5736 157.697 55.0799 157.437C55.5798 157.177 55.8509 154.081 56.6804 153.947C57.5099 153.813 74.1646 161.278 83.1971 166.002C92.2296 170.726 209.847 194.813 209.847 194.813Z" fill="#F8CC46" stroke="#333333" stroke-width="1.2" stroke-miterlimit="10" stroke-linecap="round" stroke-linejoin="round"/>
<path d="M70.779 293.245C76.24 289.634 89.3911 300.888 94.4834 304.815C99.5757 308.743 98.754 306.815 115.72 301.205C132.692 295.589 156.04 300.854 171.438 306.917C186.836 312.98 205.735 317.056 205.735 317.056C205.735 317.056 209.781 311.101 215.002 305.238C220.224 299.374 231.983 290.267 238.265 295.001C242.771 298.391 239.543 307.371 237.348 312.195C236.083 313.666 234.707 315.168 233.211 316.675C221.773 328.21 211.106 336.332 204.57 332.791C202.298 331.51 202.467 328.405 202.467 328.405C202.467 328.405 201.184 329.009 196.906 328.253C192.627 327.497 172.204 321.38 158.846 320.901C145.487 320.423 127.274 320.508 108.033 326.879C108.186 329.159 107.148 334.577 98.3688 330.861C90.7814 327.647 81.2603 321.659 72.3937 311.725C67.4647 302.309 65.8825 296.482 70.779 293.245Z" fill="#ECA539"/>
<path d="M91.7334 233.557C91.7334 233.557 79.7661 231.474 66.2189 217.546C72.3887 225.499 80.2385 236.036 89.9017 241.547C90.743 238.196 91.7334 233.557 91.7334 233.557Z" fill="#ECA539"/>
<path d="M209.847 194.813C209.847 194.813 209.393 208.809 211.351 220.185C213.308 231.561 216.327 242.906 223.995 255.034C231.662 267.155 236.139 272.837 236.377 280.423C239.889 277.534 244.17 275.227 245.74 276.655C247.31 278.082 246.624 279.895 246.624 279.895C246.624 279.895 248.396 278.607 249.291 279.627C250.186 280.647 250.556 282.747 249.836 285.038C251.083 284.837 251.645 286.518 250.373 290.374C249.101 294.23 244.654 305.14 233.216 316.668C221.777 328.197 211.111 336.326 204.574 332.784C202.303 331.503 202.472 328.398 202.472 328.398C202.472 328.398 201.189 329.002 196.911 328.246C192.632 327.49 172.209 321.373 158.851 320.895C145.492 320.416 127.279 320.501 108.037 326.872C108.191 329.152 107.152 334.57 98.3737 330.854C89.5948 327.138 78.2371 319.718 68.2995 306.766C58.3619 293.813 56.2373 285.308 57.653 284.449C58.356 283.941 59.5594 284.499 59.5594 284.499C59.5594 284.499 57.2903 278.899 58.8238 277.953C60.3574 277.006 62.4406 279.251 62.4406 279.251C62.4406 279.251 62.1317 277.379 63.2721 276.872C64.4126 276.364 66.1906 276.775 69.345 278.957C69.2537 275.282 69.3328 270.594 74.3083 264.115C79.2839 257.636 83.158 255.763 87.3008 254.922C89.0136 248.834 90.0081 245.558 90.5349 241.916C90.5349 241.916 81.2481 237.059 69.6855 222.133C58.123 207.206 50.9433 194.135 48.1147 186.569C45.2924 179.002 43.5699 174.236 42.7466 173.424C41.9226 172.607 40.8798 171.126 41.0236 170.478C41.1674 169.829 43.0629 170.273 43.2067 169.624C43.3505 168.976 41.9334 166.423 42.3802 165.636C42.827 164.85 45.1378 165.201 45.3183 164.916C45.4988 164.632 44.6749 162.178 45.1381 161.555C45.6007 160.925 48.0735 161.311 48.5468 160.788C49.0202 160.265 47.699 157.594 48.4201 156.888C49.1412 156.181 54.5736 157.697 55.0798 157.437C55.5798 157.177 55.8509 154.081 56.6804 153.947C57.5099 153.813 74.1646 161.278 83.1971 166.002C92.2296 170.726 209.847 194.813 209.847 194.813Z" stroke="#333333" stroke-width="2" stroke-miterlimit="10" stroke-linecap="round" stroke-linejoin="round"/>
<path d="M212.287 193.852C222.428 182.846 220.839 176.506 218.87 166.4C216.901 156.293 219.011 147.363 219.24 138.621C219.468 129.879 218.691 121.663 216.474 116.388C262.841 132.023 296.736 116.147 308.716 109.238C249.155 71.674 197.548 96.253 197.548 96.253C197.548 96.253 175.836 77.349 137.327 83.5935C153.71 70.0591 173.19 53.728 182.783 16.8365C161.411 20.6755 112.525 45.0256 101.23 100.693C98.6579 104.546 94.6472 106.636 92.8595 120.347C91.0719 134.058 88.1165 147.189 84.4674 155.006C80.8182 162.823 77.8437 174.694 97.7954 196.578C111.74 211.239 117.389 214.902 117.389 214.902" fill="#F8CC46"/>
<path d="M156.368 146.835C156.361 147.704 155.62 148.85 153.748 148.759C151.875 148.668 151.16 147.041 151.597 146.28C152.033 145.52 156.383 145.407 156.368 146.835Z" fill="#333333"/>
<path d="M188.278 138.007C182.288 140.765 181.585 150.968 185.511 155.33C189.436 159.691 197.257 160.25 201.301 156.357C205.346 152.463 205.888 143.69 200.865 139.438C195.841 135.187 190.701 136.889 188.278 138.007Z" fill="#333333"/>
<path d="M188.703 138.636C187.557 139.22 185.339 142.62 187.094 145.063C188.849 147.505 192.126 147.449 193.793 146.254C195.46 145.06 196.068 142.101 194.551 139.996C193.033 137.891 190.246 137.847 188.703 138.636Z" fill="white"/>
<path d="M120.788 129.697C117.852 127.297 110.59 126.492 105.933 131.664C101.275 136.837 102.41 144.383 107.075 147.719C111.74 151.055 120.553 148.319 122.59 143.942C124.633 139.558 124.414 132.662 120.788 129.697Z" fill="#333333"/>
<path d="M120.318 131.076C118.801 129.985 115.818 130.063 114.552 131.655C113.286 133.246 113.37 136.846 115.208 138.171C117.047 139.495 120.317 138.926 121.459 137.302C122.601 135.678 122.498 132.639 120.318 131.076Z" fill="white"/>
<path d="M182.783 16.8359C179.599 29.0831 175.318 39.0562 170.431 47.4224C168.332 45.3314 163.116 44.8342 148.536 47.0147C135.679 48.9334 122.489 58.5581 116.583 63.3489C136.15 33.7247 166.983 19.6716 182.783 16.8359Z" fill="#333333"/>
<path d="M308.715 109.243C298.868 114.924 274.209 126.658 239.992 121.971C245.786 120.653 256.929 117.455 265.576 110.987C275.778 103.349 278.408 97.7462 277.22 94.3842C287.281 97.6225 297.866 102.4 308.715 109.243Z" fill="#333333"/>
<path d="M109.563 94.1438C109.563 94.1438 109.403 94.1853 109.129 94.3015C108.847 94.3995 108.467 94.5836 108.014 94.8066C107.569 95.0479 107.045 95.3161 106.523 95.6729C105.993 96.0114 105.449 96.4021 104.914 96.8173C104.649 97.0214 104.378 97.2261 104.119 97.4234C103.862 97.6331 103.617 97.8479 103.385 98.0552C102.913 98.4703 102.47 98.8571 102.12 99.222C101.413 99.9398 100.955 100.43 100.955 100.43C100.812 100.583 100.824 100.823 100.971 100.967C101.112 101.099 101.334 101.102 101.473 100.98L101.491 100.966C101.491 100.966 101.993 100.535 102.718 99.8722C102.905 99.7076 103.088 99.5117 103.304 99.3314C103.52 99.1512 103.748 98.9571 103.981 98.7562C104.215 98.5615 104.46 98.3467 104.698 98.1325C104.95 97.9297 105.202 97.7205 105.46 97.517C105.962 97.0925 106.494 96.7093 106.982 96.3306C107.463 95.9463 107.937 95.6196 108.317 95.3025C108.719 95.0148 109.048 94.7598 109.278 94.5846C109.514 94.4087 109.643 94.307 109.643 94.307C109.684 94.2775 109.691 94.2134 109.661 94.172C109.646 94.1482 109.606 94.1331 109.563 94.1438Z" fill="#333333" stroke="#333333"/>
<path d="M170.649 169.814C170.649 169.814 168.296 179.486 162.769 189.869C157.243 200.253 152.02 205.85 148.035 205.616C144.05 205.382 137.68 195.635 135.846 181.393C134.018 167.151 134.241 165.461 134.241 165.461C134.241 165.461 139.826 165.851 144.432 163.562C149.037 161.274 152.44 158.117 158.834 162.573C165.215 167.03 167.002 169.787 170.649 169.814Z" fill="#6C4C59" stroke="#333333" stroke-width="1.2" stroke-miterlimit="10" stroke-linecap="round" stroke-linejoin="round"/>
<path d="M135.785 180.917C138.046 177.811 142.913 173.023 151.207 173.433C160.583 173.893 164.213 181.176 165.392 184.507C164.609 186.24 163.738 188.04 162.769 189.868C157.236 200.253 152.02 205.849 148.035 205.615C144.05 205.381 137.68 195.634 135.846 181.392C135.823 181.23 135.808 181.079 135.785 180.917Z" fill="#F26981" stroke="#333333" stroke-width="1.2" stroke-miterlimit="10" stroke-linecap="round" stroke-linejoin="round"/>
<path d="M175.773 168.139C175.773 168.139 175.695 168.185 175.562 168.255C175.437 168.331 175.243 168.414 175.012 168.52C174.783 168.632 174.507 168.729 174.214 168.841C173.913 168.928 173.61 169.067 173.279 169.119C173.118 169.154 172.957 169.189 172.796 169.231C172.642 169.278 172.478 169.282 172.328 169.303C172.178 169.325 172.027 169.333 171.89 169.36C171.754 169.392 171.621 169.393 171.494 169.393C171.006 169.398 170.674 169.437 170.674 169.437L170.612 169.444C170.405 169.465 170.259 169.65 170.279 169.858C170.298 170.04 170.445 170.177 170.617 170.191C170.617 170.191 170.982 170.225 171.533 170.226C171.808 170.249 172.125 170.18 172.467 170.12C172.635 170.084 172.811 170.073 172.982 170.011C173.155 169.962 173.327 169.907 173.498 169.845C173.849 169.746 174.159 169.55 174.469 169.418C174.62 169.339 174.756 169.243 174.887 169.16C175.018 169.077 175.143 169.001 175.249 168.921C175.467 168.76 175.637 168.616 175.752 168.503C175.868 168.396 175.925 168.333 175.925 168.333L175.931 168.326C175.976 168.271 175.968 168.196 175.913 168.15C175.878 168.116 175.815 168.116 175.773 168.139Z" fill="#333333"/>
<path d="M128.92 162.8C128.92 162.8 128.96 162.878 129.07 163.026C129.174 163.174 129.326 163.362 129.519 163.583C129.613 163.694 129.737 163.796 129.857 163.917C129.982 164.025 130.104 164.165 130.254 164.27C130.554 164.481 130.859 164.736 131.212 164.91C131.55 165.117 131.909 165.284 132.257 165.401C132.428 165.466 132.593 165.532 132.757 165.585C132.915 165.646 133.075 165.661 133.218 165.698C133.8 165.81 134.185 165.854 134.185 165.854C134.39 165.878 134.577 165.726 134.601 165.521C134.621 165.341 134.51 165.181 134.352 165.121L134.299 165.101C134.299 165.101 133.957 164.983 133.436 164.845C133.306 164.807 133.165 164.79 133.025 164.721C132.885 164.659 132.735 164.611 132.577 164.551C132.418 164.491 132.255 164.444 132.096 164.371C131.942 164.291 131.782 164.212 131.616 164.14C131.28 164.009 130.986 163.804 130.697 163.636C130.543 163.557 130.419 163.455 130.29 163.373C130.167 163.284 130.033 163.208 129.935 163.123C129.722 162.954 129.537 162.821 129.426 162.718C129.308 162.622 129.238 162.553 129.238 162.553C129.16 162.472 129.033 162.472 128.952 162.55C128.889 162.613 128.879 162.703 128.912 162.782L128.92 162.8Z" fill="#333333"/>
<path d="M207.955 165.014C212.512 164.189 217.312 167.924 219.561 169.987C221.054 178.144 221.177 184.206 212.287 193.856C210.767 195.505 209.338 196.98 207.965 198.323C194.146 197.244 193.263 185.018 194.798 177.54C196.391 169.765 201.73 166.14 207.955 165.014Z" fill="#F22539" stroke="#333333" stroke-width="1.2" stroke-miterlimit="10" stroke-linecap="round" stroke-linejoin="round"/>
<path d="M82.8804 159.016C85.7339 156.072 91.6301 152.817 98.2085 156.963C106.669 162.296 107.84 175.495 103.701 182.41C100.598 187.598 93.905 188.105 90.7542 188.034C80.8914 174.504 80.848 165.517 82.8804 159.016Z" fill="#F22539" stroke="#333333" stroke-width="1.2" stroke-miterlimit="10" stroke-linecap="round" stroke-linejoin="round"/>
<path d="M157.852 222.145C157.82 223.842 151.065 228.325 143.972 228.187C136.879 228.056 131.566 223.517 131.625 222.027C131.684 220.537 138.559 221.648 143.881 222.064C149.203 222.488 157.888 220.24 157.852 222.145Z" fill="#ECA539"/>
<path d="M90.8954 241.968C90.8954 241.968 91.2034 240.244 91.6657 237.661C91.858 236.361 92.0394 234.827 92.2552 233.195C92.4516 231.558 92.6052 229.812 92.7657 228.071C92.8873 226.321 93.0347 224.576 93.1294 222.936C93.2241 221.297 93.2913 219.762 93.3047 218.448C93.3181 217.134 93.3216 216.037 93.2953 215.272C93.2815 214.507 93.2498 214.066 93.2498 214.066C93.2485 213.99 93.1794 213.933 93.1104 213.94C93.0414 213.947 92.9893 213.997 92.9831 214.061C92.9831 214.061 92.9383 214.497 92.8504 215.26C92.7625 216.023 92.6818 217.11 92.5535 218.416C92.4504 219.72 92.3186 221.242 92.2107 222.876C92.1028 224.511 91.9422 226.251 91.8068 227.99C91.7171 228.861 91.6331 229.726 91.5478 230.578C91.4625 231.43 91.4023 232.279 91.3063 233.088C91.1149 234.711 90.9373 236.219 90.7827 237.515C90.4107 240.115 90.1605 241.845 90.1605 241.845C90.1305 242.051 90.2706 242.247 90.4764 242.277C90.6697 242.308 90.8648 242.168 90.8954 241.968Z" fill="#333333" stroke="#333333"/>
<path d="M103.287 255.866C103.287 255.866 103.065 255.736 102.653 255.549C102.242 255.369 101.657 255.104 100.923 254.861C100.194 254.61 99.3255 254.355 98.3796 254.152C97.9077 254.06 97.415 253.951 96.9141 253.887C96.4114 253.804 95.8981 253.742 95.3866 253.698C94.8739 253.642 94.3543 253.643 93.8454 253.625C93.3352 253.593 92.8325 253.637 92.3512 253.641C91.863 253.64 91.4019 253.718 90.9557 253.756C90.5096 253.795 90.0986 253.868 89.7128 253.938C89.3332 254.008 88.9774 254.063 88.675 254.144C88.3663 254.225 88.1009 254.296 87.8851 254.356C87.4472 254.476 87.2006 254.545 87.2006 254.545C86.9974 254.604 86.8852 254.812 86.9368 255.009C86.9878 255.201 87.1837 255.321 87.3757 255.276L87.407 255.273C87.407 255.273 87.6492 255.223 88.0771 255.129C88.2879 255.083 88.5483 255.025 88.8457 254.957C89.1437 254.896 89.4882 254.855 89.8559 254.792C90.2235 254.73 90.6226 254.665 91.0568 254.634C91.4841 254.597 91.934 254.533 92.4021 254.524C92.8696 254.509 93.3528 254.46 93.8485 254.474C94.3437 254.481 94.8438 254.475 95.3421 254.514C95.8447 254.533 96.3424 254.566 96.83 254.625C97.322 254.664 97.799 254.743 98.2684 254.81C99.1967 254.964 100.068 255.124 100.798 255.317C102.273 255.676 103.216 256.038 103.216 256.038C103.268 256.058 103.323 256.034 103.343 255.981C103.345 255.943 103.327 255.887 103.287 255.866Z" fill="#333333" stroke="#333333"/>
<path d="M151.206 173.435C160.583 173.895 164.213 181.177 165.392 184.509C165.231 184.867 165.059 185.233 164.887 185.605C163.225 183.388 158.662 178.418 151.153 178.437C142.896 178.454 138.686 179.574 136.069 182.976C135.985 182.458 135.913 181.933 135.84 181.401C135.818 181.238 135.802 181.081 135.78 180.925C138.046 177.819 142.913 173.025 151.206 173.435Z" fill="#B94966"/>
<path d="M135.785 180.917C138.046 177.811 142.913 173.023 151.207 173.433C160.583 173.893 164.213 181.176 165.392 184.507C164.609 186.24 163.738 188.04 162.769 189.868C157.236 200.253 152.02 205.849 148.035 205.615C144.05 205.381 137.68 195.634 135.846 181.392C135.823 181.23 135.808 181.079 135.785 180.917Z" stroke="#333333" stroke-width="1.2" stroke-miterlimit="10" stroke-linecap="round" stroke-linejoin="round"/>
<path d="M239.993 121.972C239.993 121.972 218.854 115.357 213.214 110.774C215.266 113.973 216.318 116.043 216.318 116.043C216.318 116.043 231.588 121.402 239.993 121.972Z" fill="#ECA539"/>
<path d="M216.818 116.227C216.818 116.227 216.543 115.569 216.103 114.599C216.002 114.356 215.843 114.099 215.689 113.829C215.535 113.559 215.373 113.271 215.204 112.971C214.864 112.371 214.433 111.805 214.036 111.198C213.841 110.895 213.616 110.613 213.398 110.337C213.18 110.061 212.962 109.785 212.752 109.527C212.314 109.013 211.905 108.54 211.524 108.16C211.155 107.766 210.827 107.463 210.596 107.251C210.365 107.033 210.221 106.927 210.221 106.927C210.174 106.894 210.111 106.9 210.071 106.942C210.043 106.977 210.042 107.034 210.071 107.069C210.071 107.069 210.49 107.642 211.116 108.505C211.437 108.929 211.769 109.454 212.17 109.978C212.356 110.251 212.55 110.536 212.743 110.821C212.931 111.113 213.155 111.388 213.338 111.687C213.708 112.284 214.122 112.864 214.426 113.436C214.594 113.717 214.754 113.986 214.907 114.244C215.06 114.501 215.21 114.733 215.324 114.982C215.806 115.935 216.148 116.56 216.148 116.56C216.25 116.747 216.478 116.812 216.664 116.711C216.819 116.613 216.887 116.404 216.818 116.227Z" fill="#333333" stroke="#333333"/>
<path d="M160.68 61.3633C160.68 61.3633 141.715 78.1562 127.023 86.3338C134.241 84.1823 137.32 83.6005 137.32 83.6005C137.32 83.6005 156.718 67.5885 160.68 61.3633Z" fill="#ECA539"/>
<path d="M182.815 215.338C184.986 214.233 187.156 213.127 189.302 211.967C191.456 210.825 193.577 209.61 195.668 208.347C197.759 207.078 199.78 205.683 201.714 204.189C203.641 202.683 205.481 201.059 207.243 199.366C208.991 197.656 210.691 195.907 212.342 194.111C213.993 192.316 215.571 190.426 216.917 188.37C218.256 186.314 219.362 184.079 219.97 181.684C220.604 179.294 220.668 176.782 220.435 174.345C220.207 171.895 219.718 169.497 219.256 167.108C218.781 164.721 218.469 162.324 218.365 159.899C218.129 155.047 218.629 150.196 219.078 145.345C219.303 142.919 219.488 140.478 219.54 138.032C219.592 135.591 219.579 133.139 219.46 130.697C219.334 128.255 219.107 125.811 218.717 123.39C218.309 120.971 217.749 118.56 216.807 116.258L216.338 116.762L219.187 117.668L220.608 118.121L222.043 118.529L224.92 119.343L227.819 120.06C228.783 120.312 229.761 120.519 230.732 120.725C231.709 120.925 232.677 121.158 233.658 121.332L236.601 121.855C237.583 122.035 238.57 122.151 239.555 122.3L241.034 122.513L242.522 122.68C243.515 122.784 244.504 122.919 245.494 122.991L248.477 123.224L251.464 123.368C252.459 123.426 253.459 123.415 254.457 123.435L255.954 123.456L257.447 123.427C259.442 123.41 261.434 123.305 263.419 123.182L266.399 122.94L269.37 122.616L272.333 122.205L275.281 121.712L278.216 121.145L281.136 120.496L284.035 119.768C284.996 119.494 285.959 119.239 286.913 118.953C294.577 116.642 301.986 113.552 308.899 109.567C309.079 109.466 309.144 109.232 309.037 109.052C309.006 108.998 308.957 108.952 308.91 108.919C306.847 107.636 304.768 106.38 302.652 105.185C301.591 104.594 300.535 103.99 299.458 103.432C298.386 102.855 297.309 102.297 296.222 101.759C294.058 100.664 291.845 99.6498 289.628 98.6612C287.396 97.7059 285.153 96.7707 282.87 95.9347C273.767 92.5304 264.281 90.1539 254.638 88.9407C245.001 87.7144 235.215 87.6507 225.559 88.7597C220.735 89.3138 215.941 90.1693 211.221 91.3217C208.865 91.907 206.522 92.5608 204.208 93.313C201.895 94.0716 199.613 94.8841 197.371 95.9019L197.782 95.9558C196.737 95.0904 195.659 94.33 194.552 93.5915C193.445 92.8592 192.305 92.1747 191.155 91.5229C190.005 90.8648 188.829 90.26 187.635 89.676C186.448 89.0913 185.234 88.5538 184.016 88.0356C182.792 87.5244 181.558 87.0459 180.315 86.6C179.067 86.161 177.813 85.7352 176.54 85.3621C175.911 85.1589 175.273 84.9884 174.628 84.8185C173.99 84.648 173.35 84.4649 172.708 84.3201L170.774 83.8676L168.825 83.4671C168.178 83.3292 167.522 83.2366 166.87 83.1181C166.218 83.006 165.567 82.8939 164.912 82.8137L162.946 82.5483L160.974 82.3468C159.66 82.2061 158.335 82.1425 157.014 82.0532C155.693 82.021 154.372 81.9317 153.05 81.9567L151.066 81.9593L149.082 82.0253C147.761 82.0565 146.441 82.17 145.119 82.2583C143.796 82.3404 142.491 82.5286 141.172 82.6546C139.858 82.8183 138.554 83.0253 137.248 83.2072L137.549 83.8744C142.845 79.5064 148.123 75.0768 153.015 70.223C154.243 69.0153 155.436 67.7731 156.616 66.5197C157.781 65.2549 158.932 63.9726 160.049 62.662C162.281 60.0346 164.39 57.3055 166.355 54.4767C168.32 51.6479 170.148 48.7187 171.822 45.7098L173.057 43.4361L174.233 41.1368C174.983 39.5841 175.726 38.0319 176.417 36.4535C176.775 35.6692 177.094 34.87 177.426 34.0757C177.764 33.2808 178.083 32.4816 178.388 31.6773C179.026 30.0787 179.591 28.4494 180.168 26.8252C180.701 25.1865 181.259 23.5578 181.732 21.8997C182.245 20.2566 182.672 18.5841 183.133 16.9272C183.188 16.7251 183.073 16.5211 182.871 16.4653C182.812 16.4521 182.754 16.4452 182.705 16.4566L182.699 16.4572C177.596 17.4007 172.672 19.0365 167.884 20.9693C163.106 22.9202 158.477 25.2302 154.017 27.8277C145.095 33.0163 136.843 39.3679 129.591 46.7161C125.968 50.3899 122.585 54.3059 119.518 58.4629C116.45 62.6136 113.664 66.9833 111.246 71.5443C106.37 80.6513 102.893 90.4929 100.846 100.616L100.902 100.483C100.157 101.585 99.2521 102.602 98.4046 103.689C97.5501 104.77 96.7666 105.927 96.1168 107.153C94.7916 109.6 93.9898 112.274 93.3725 114.955C92.7622 117.642 92.4293 120.376 92.0473 123.065C91.6598 125.761 91.2145 128.45 90.7302 131.13C89.7555 136.491 88.5681 141.816 86.9877 147.016C86.1909 149.613 85.283 152.178 84.168 154.636C83.0046 157.118 82.0478 159.763 81.6471 162.517C81.2332 165.266 81.3716 168.087 81.9172 170.797C82.4697 173.512 83.4174 176.125 84.5878 178.62C85.752 181.115 87.1633 183.485 88.6862 185.767C90.2153 188.048 91.8687 190.241 93.6149 192.348C94.488 193.402 95.3736 194.455 96.2875 195.472C96.751 195.984 97.1825 196.492 97.6717 197.008L99.0999 198.475L101.95 201.416C102.904 202.392 103.888 203.346 104.866 204.307C105.837 205.268 106.82 206.216 107.832 207.141C108.838 208.067 109.816 209.022 110.862 209.906C112.908 211.717 115.017 213.471 117.296 215.011C117.357 215.05 117.438 215.035 117.476 214.974C117.514 214.913 117.5 214.839 117.445 214.793L117.438 214.788C116.898 214.392 116.36 213.964 115.841 213.528C115.315 213.092 114.796 212.656 114.293 212.193C113.259 211.308 112.26 210.387 111.26 209.454C110.255 208.54 109.278 207.586 108.289 206.645C107.295 205.711 106.331 204.756 105.371 203.787C104.412 202.824 103.429 201.876 102.475 200.901L99.6247 197.959L98.2022 196.485C97.7481 196.004 97.2959 195.479 96.8462 194.979C95.9392 193.967 95.0612 192.926 94.2006 191.871C92.4683 189.775 90.8356 187.599 89.3278 185.341C87.8262 183.082 86.4369 180.742 85.296 178.289C84.1495 175.842 83.2263 173.284 82.694 170.643C82.1685 168.007 82.034 165.287 82.4385 162.634C82.8299 159.976 83.7459 157.43 84.9055 154.974C86.0475 152.469 86.9648 149.872 87.7785 147.254C89.3796 142.007 90.584 136.661 91.5694 131.28C92.0649 128.586 92.497 125.893 92.8827 123.178C93.2564 120.471 93.58 117.769 94.1696 115.129C94.7662 112.494 95.5423 109.88 96.813 107.52C97.4352 106.336 98.1849 105.22 99.0161 104.16C99.8405 103.095 100.751 102.065 101.534 100.902C101.561 100.861 101.576 100.822 101.591 100.776L101.59 100.769C103.626 90.7174 107.078 80.948 111.916 71.9019C114.318 67.3742 117.088 63.0377 120.134 58.9147C123.178 54.7853 126.539 50.9032 130.139 47.2508C137.345 39.9516 145.545 33.6433 154.406 28.4861C158.837 25.9106 163.436 23.6163 168.184 21.6748C172.928 19.7527 177.822 18.1326 182.844 17.2036L182.41 16.7335C181.955 18.3835 181.526 20.0435 181.019 21.6796C180.545 23.3252 179.992 24.9469 179.465 26.5787C178.893 28.1898 178.333 29.8122 177.695 31.3982C177.395 32.2018 177.076 32.9948 176.737 33.7834C176.404 34.5714 176.092 35.37 175.733 36.148C175.048 37.7195 174.31 39.2648 173.565 40.8043L172.395 43.0905L171.171 45.344C169.507 48.3328 167.696 51.2413 165.741 54.05C163.787 56.8588 161.696 59.5734 159.481 62.1801C158.37 63.4838 157.23 64.7585 156.07 66.0164C154.897 67.2629 153.709 68.4982 152.493 69.6983C147.63 74.5239 142.376 78.9384 137.073 83.3008C136.909 83.4315 136.889 83.6744 137.025 83.8319C137.112 83.9374 137.243 83.9813 137.369 83.9687L137.375 83.968C138.675 83.7868 139.973 83.5804 141.275 83.418C142.58 83.2932 143.88 83.1057 145.19 83.0248C146.499 82.9315 147.806 82.8192 149.115 82.7893L151.079 82.7189L153.044 82.7182C154.354 82.6945 155.668 82.7844 156.977 82.8116C158.285 82.9021 159.597 82.9607 160.898 83.1027L162.858 83.3054L164.805 83.5728C165.453 83.6535 166.104 83.7594 166.75 83.8784C167.396 83.9975 168.045 84.0845 168.686 84.223L170.615 84.6191L172.53 85.0672C173.172 85.212 173.798 85.3901 174.43 85.5613C175.062 85.7324 175.694 85.9036 176.323 86.1005C177.583 86.4685 178.823 86.8893 180.059 87.3233C181.295 87.7635 182.515 88.2434 183.726 88.7433C184.931 89.2563 186.126 89.7895 187.306 90.3685C188.48 90.9482 189.649 91.5473 190.786 92.1941C191.922 92.8409 193.048 93.5142 194.135 94.2357C195.222 94.9573 196.3 95.7177 197.283 96.5385C197.401 96.6408 197.561 96.6564 197.694 96.5924C199.864 95.6135 202.151 94.7878 204.441 94.0443C206.736 93.3002 209.06 92.6484 211.404 92.0706C216.093 90.9213 220.849 90.0696 225.649 89.5243C235.242 88.4216 244.965 88.4853 254.544 89.7048C264.123 90.918 273.557 93.2744 282.607 96.6586C284.877 97.4896 287.107 98.4198 289.326 99.3701C291.536 100.353 293.728 101.357 295.885 102.446C296.966 102.978 298.042 103.536 299.101 104.108C300.172 104.667 301.221 105.265 302.281 105.85C304.384 107.034 306.456 108.284 308.505 109.562L308.516 108.914C301.657 112.862 294.297 115.935 286.716 118.192C285.769 118.478 284.812 118.732 283.856 118.999L280.976 119.726L278.075 120.373L275.159 120.938L272.229 121.422L269.285 121.832L266.332 122.154L263.371 122.394C261.393 122.517 259.42 122.626 257.438 122.641L255.951 122.67L254.466 122.648C253.475 122.627 252.487 122.637 251.499 122.578L248.531 122.438L245.567 122.21C244.578 122.138 243.601 122.001 242.615 121.904L241.14 121.741L239.668 121.528C238.689 121.379 237.701 121.262 236.733 121.087L233.809 120.569C232.835 120.394 231.868 120.168 230.897 119.967C229.926 119.766 228.96 119.559 227.997 119.307L225.111 118.595L222.253 117.785L220.824 117.377L219.409 116.923L216.58 116.021C216.378 115.959 216.167 116.069 216.104 116.265C216.075 116.351 216.084 116.439 216.111 116.518L216.111 116.525C217.037 118.733 217.605 121.099 218.029 123.478C218.428 125.867 218.678 128.283 218.82 130.704C218.957 133.131 218.992 135.556 218.946 137.99C218.905 140.416 218.724 142.837 218.507 145.269C218.069 150.113 217.579 155 217.832 159.902C217.946 162.351 218.275 164.797 218.756 167.184C219.225 169.572 219.713 171.964 219.949 174.369C220.179 176.774 220.12 179.215 219.512 181.546C218.924 183.882 217.852 186.076 216.535 188.104C215.212 190.133 213.67 192.006 212.019 193.795C210.346 195.561 208.666 197.321 206.873 198.96C205.079 200.598 203.228 202.166 201.283 203.617C199.351 205.079 197.338 206.429 195.274 207.708C193.218 208.999 191.101 210.194 188.999 211.42C186.884 212.628 184.769 213.842 182.667 215.068C182.595 215.107 182.573 215.198 182.617 215.263C182.664 215.347 182.749 215.37 182.815 215.338Z" fill="#333333" stroke="#333333"/>
<path d="M120.58 89.2575C120.58 89.2575 121.61 88.8497 123.151 88.2321C123.534 88.0731 123.964 87.9348 124.403 87.7576C124.848 87.5861 125.312 87.4127 125.794 87.2248C126.284 87.0551 126.787 86.8842 127.3 86.6994C127.807 86.509 128.327 86.3237 128.857 86.169C129.385 86.0019 129.908 85.8416 130.424 85.6819C130.939 85.5097 131.459 85.3878 131.952 85.2495C132.452 85.1168 132.934 84.9861 133.39 84.8641C133.846 84.7359 134.279 84.629 134.684 84.5567C136.298 84.2171 137.376 83.9757 137.376 83.9757L137.407 83.9662C137.611 83.9203 137.737 83.7175 137.691 83.5129C137.646 83.3145 137.456 83.1941 137.262 83.2199C137.262 83.2199 136.158 83.3942 134.501 83.6873C134.083 83.7546 133.644 83.8558 133.181 83.9847C132.718 84.101 132.223 84.2267 131.717 84.36C131.21 84.487 130.678 84.6165 130.165 84.8075C129.643 84.9804 129.11 85.1545 128.583 85.3342C128.048 85.502 127.529 85.6999 127.01 85.8979C126.497 86.0889 125.992 86.2981 125.511 86.4923C125.032 86.7053 124.571 86.9101 124.134 87.1061C123.697 87.2958 123.287 87.5019 122.92 87.6973C122.547 87.8933 122.209 88.0667 121.909 88.23C121.615 88.399 121.358 88.5516 121.148 88.6741C120.723 88.9197 120.498 89.0755 120.499 89.0818C120.451 89.1119 120.438 89.1766 120.469 89.2243C120.484 89.2544 120.536 89.2682 120.58 89.2575Z" fill="#333333" stroke="#333333"/>
<path d="M192.723 275.801C192.723 275.801 211 271.239 206.879 258.653C202.71 266.092 200.053 269.852 192.723 275.801Z" fill="#ECA539"/>
<path d="M169.346 229.151C169.346 229.151 169.248 229.25 169.053 229.447C168.856 229.638 168.575 229.932 168.216 230.324C167.482 231.095 166.445 232.251 165.186 233.786C163.913 235.302 162.458 237.224 160.881 239.494C159.309 241.763 157.622 244.393 155.97 247.368C154.317 250.343 152.667 253.653 151.306 257.322C150.995 258.254 150.683 259.192 150.361 260.144C150.058 261.1 149.788 262.065 149.5 263.052C148.944 265.016 148.399 267.03 147.897 269.097C147.395 271.158 146.924 273.272 146.539 275.429C146.174 277.596 145.824 279.787 145.886 282.102C145.926 282.687 145.953 283.268 146.229 283.925C146.557 284.799 147.664 284.897 148.282 284.683C148.608 284.58 148.896 284.418 149.114 284.32C149.216 284.259 149.343 284.259 149.215 284.253C149.201 284.242 149.125 284.237 149.096 284.202C149.062 284.18 149.042 284.169 149.033 284.138C148.968 283.999 149.025 284.126 149.017 284.108L149.034 284.157C149.051 284.194 149.06 284.224 149.055 284.231L149.098 284.538L149.146 284.945L149.23 285.786C149.294 286.357 149.371 286.932 149.526 287.526C149.6 287.823 149.707 288.123 149.851 288.425C150.026 288.718 150.206 289.055 150.614 289.268L150.682 289.312C150.702 289.323 150.795 289.364 150.775 289.353L150.873 289.388C150.939 289.413 150.999 289.439 151.109 289.459C151.323 289.514 151.495 289.522 151.673 289.523C152.021 289.52 152.344 289.449 152.646 289.368C153.232 289.202 153.77 288.951 154.166 288.918C154.355 288.905 154.422 288.936 154.521 289.041C154.606 289.127 154.725 289.363 154.811 289.595C154.993 290.077 155.1 290.631 155.369 291.232C155.442 291.383 155.521 291.54 155.651 291.704C155.723 291.786 155.781 291.863 155.891 291.94L155.966 291.996C156.026 292.028 155.941 291.999 156.114 292.077L156.212 292.111C156.232 292.115 156.238 292.121 156.265 292.131L156.387 292.15C156.471 292.161 156.553 292.166 156.636 292.164C156.748 292.146 156.86 292.122 156.958 292.093C157.142 292.03 157.299 291.951 157.436 291.868C157.974 291.541 158.415 291.135 158.795 290.945C158.872 290.899 158.955 290.903 158.879 290.898C158.872 290.893 158.834 290.897 158.82 290.879L158.763 290.821L158.799 290.862C158.876 290.93 158.844 290.927 158.844 290.927C158.906 291.042 158.964 291.308 159.01 291.57C159.056 291.844 159.099 292.144 159.215 292.475C159.323 292.794 159.574 293.207 159.999 293.398C160.138 293.454 160.065 293.424 160.111 293.438L160.163 293.452C160.208 293.46 160.209 293.472 160.286 293.484C160.415 293.503 160.581 293.518 160.668 293.496C160.881 293.475 161.059 293.413 161.217 293.346C161.532 293.206 161.782 293.042 162.015 292.898C162.247 292.748 162.474 292.611 162.651 292.542C162.736 292.509 162.805 292.502 162.818 292.507L162.825 292.506C162.805 292.502 162.877 292.52 162.784 292.485L162.877 292.526C162.95 292.557 162.9 292.562 162.926 292.566C163.198 292.817 163.466 293.336 163.756 293.82C163.907 294.065 164.06 294.322 164.328 294.593C164.467 294.719 164.648 294.878 164.975 294.915C165.026 294.917 165.158 294.91 165.239 294.889C165.306 294.869 165.343 294.853 165.392 294.835C165.483 294.801 165.555 294.762 165.628 294.729C166.181 294.426 166.604 294.099 167.059 293.774C167.502 293.444 167.938 293.121 168.374 292.792C170.113 291.495 171.851 290.249 173.698 289.328C175.598 288.37 177.468 287.497 179.212 286.377C180.09 285.839 180.978 285.338 181.815 284.784C182.632 284.208 183.444 283.644 184.243 283.082C185.035 282.515 185.844 281.989 186.59 281.407C187.329 280.813 188.049 280.227 188.765 279.654C190.176 278.498 191.614 277.422 192.841 276.265C195.387 274.037 197.587 271.781 199.428 269.732C201.246 267.647 202.762 265.77 203.848 264.101C204.13 263.692 204.389 263.305 204.638 262.937C204.866 262.559 205.077 262.202 205.278 261.871C205.674 261.21 206.004 260.644 206.234 260.164C206.709 259.216 206.962 258.709 206.962 258.709C206.984 258.669 206.966 258.62 206.926 258.599C206.886 258.577 206.843 258.594 206.815 258.629L206.809 258.636C206.809 258.636 206.515 259.115 205.966 260.02C205.708 260.477 205.338 261.015 204.9 261.643C204.684 261.956 204.459 262.296 204.211 262.663C203.948 263.013 203.668 263.383 203.372 263.781C203.076 264.172 202.769 264.59 202.432 265.017C202.087 265.432 201.726 265.874 201.348 266.33C200.624 267.265 199.736 268.198 198.838 269.227C196.947 271.217 194.831 273.427 192.265 275.644C191.026 276.802 189.628 277.837 188.21 278.987C187.5 279.553 186.779 280.133 186.046 280.72C185.305 281.295 184.501 281.807 183.721 282.367C182.927 282.916 182.128 283.479 181.316 284.042C180.489 284.582 179.619 285.068 178.759 285.592C177.068 286.675 175.161 287.558 173.278 288.501C171.328 289.465 169.555 290.74 167.797 292.032C166.929 292.665 166.032 293.389 165.174 293.874C165.126 293.898 165.072 293.923 165.035 293.939L164.993 293.956C165.01 293.942 165.075 293.954 165.057 293.962C165.103 293.983 165.044 293.964 164.987 293.906C164.861 293.785 164.719 293.565 164.589 293.343C164.302 292.89 164.104 292.371 163.563 291.848C163.473 291.775 163.324 291.676 163.271 291.656L163.178 291.614C163.053 291.564 163.087 291.586 163.035 291.572L162.938 291.556C162.674 291.519 162.465 291.578 162.294 291.64C161.952 291.769 161.709 291.94 161.464 292.085C161.013 292.396 160.522 292.61 160.397 292.509C160.304 292.461 160.225 292.368 160.147 292.166C160.076 291.964 160.038 291.708 159.99 291.427C159.936 291.141 159.913 290.845 159.715 290.453C159.645 290.327 159.544 290.204 159.51 290.182L159.474 290.141C159.376 290.05 159.379 290.075 159.324 290.036C159.244 289.993 159.15 289.945 159.073 289.934C158.996 289.923 158.913 289.918 158.831 289.92C158.755 289.922 158.706 289.939 158.644 289.952C158.513 289.978 158.442 290.023 158.35 290.057C157.731 290.386 157.344 290.767 156.906 291.014C156.805 291.075 156.708 291.116 156.622 291.15C156.585 291.16 156.554 291.164 156.529 291.172C156.541 291.165 156.555 291.17 156.568 291.175C156.575 291.181 156.582 291.186 156.582 291.192C156.576 291.193 156.55 291.183 156.536 291.178C156.486 291.183 156.378 291.054 156.28 290.836C156.085 290.405 155.971 289.84 155.76 289.265C155.642 288.972 155.543 288.678 155.243 288.34C155.158 288.254 155.04 288.151 155 288.13L154.911 288.069C154.79 287.999 154.831 288.033 154.784 288.006L154.705 287.976C154.487 287.89 154.265 287.887 154.076 287.899C153.344 287.986 152.851 288.251 152.35 288.383C152.104 288.453 151.874 288.495 151.659 288.504C151.551 288.502 151.449 288.493 151.384 288.48C151.359 288.483 151.287 288.458 151.221 288.433L151.122 288.399C151.07 288.379 151.136 288.404 151.122 288.399L151.102 288.382C150.869 288.272 150.635 287.776 150.516 287.287C150.383 286.786 150.31 286.248 150.248 285.697L150.158 284.862L150.108 284.43C150.086 284.28 150.072 284.142 150.011 283.907C149.998 283.845 149.982 283.808 149.973 283.784L149.955 283.735C149.931 283.687 149.985 283.776 149.892 283.614C149.833 283.532 149.776 283.461 149.686 283.394C149.592 283.334 149.459 283.271 149.376 283.267C148.967 283.238 148.822 283.367 148.675 283.42C148.391 283.556 148.187 283.672 147.978 283.737C147.789 283.807 147.573 283.803 147.462 283.776C147.45 283.784 147.371 283.747 147.311 283.721L147.218 283.68C147.291 283.717 147.237 283.684 147.258 283.695C147.244 283.684 147.194 283.625 147.159 283.534C146.995 283.163 146.939 282.605 146.906 282.088C146.842 279.951 147.173 277.756 147.529 275.634C147.898 273.504 148.359 271.41 148.856 269.362C149.353 267.315 149.886 265.309 150.437 263.351C150.713 262.378 150.982 261.4 151.28 260.457C151.591 259.519 151.897 258.594 152.198 257.683C153.526 254.068 155.148 250.792 156.772 247.845C158.402 244.898 160.059 242.284 161.613 240.029C163.146 237.757 164.562 235.833 165.727 234.245C166.898 232.663 167.853 231.444 168.498 230.606C169.15 229.78 169.504 229.332 169.504 229.332C169.543 229.283 169.536 229.214 169.488 229.175C169.45 229.109 169.387 229.115 169.346 229.151Z" fill="#333333" stroke="#333333"/>
</g>
</g>
</svg>
